# xmcd CD database file
#
# Track frame offsets:
#	150
#	23907
#	42327
#	61930
#	86800
#	108150
#	124540
#	138287
#	160482
#	187830
#	204500
#
# Disc length: 3064 seconds
#
# Revision: 4
# Processed by: cddbd v1.5.1PL0 Copyright (c) Steve Scherf et al.
# Submitted via: CDex 1.51
#
DISCID=8d0bf60b
DTITLE=柏木 広樹 - I'M HERE
DYEAR=1900
DGENRE=Fusion
TTITLE0=JIP
TTITLE1=Rain Song
TTITLE2=Brisa
TTITLE3=Party!
TTITLE4=Mile Stone
TTITLE5=Cellomba
TTITLE6=Trio No.1
TTITLE7=File 1997
TTITLE8=Flare
TTITLE9=Sicilienne
TTITLE10=Rabo de Nube
EXTD=
EXTT0=
EXTT1=
EXTT2=
EXTT3=
EXTT4=
EXTT5=
EXTT6=
EXTT7=
EXTT8=
EXTT9=
EXTT10=
PLAYORDER=
